<svg width="20" height="24" viewBox="0 0 20 24" fill="none" xmlns="http://www.w3.org/2000/svg">
<g clip-path="url(#clip0_247_1037)">
<path d="M12.5828 0.873405C12.9001 0.982494 13.224 1.07577 13.4939 1.30376C13.9656 1.7063 14.2101 2.21302 14.2204 2.83592C14.2242 3.04537 14.1486 3.32682 14.2538 3.44409C14.3747 3.57827 14.6581 3.48282 14.8708 3.48336C15.94 3.48773 17.0093 3.48336 18.0791 3.48664C18.756 3.48664 19.3141 3.97754 19.3837 4.62607C19.424 4.95658 19.3387 5.29023 19.1452 5.55977C18.9517 5.82931 18.6643 6.01471 18.3409 6.07859C18.2489 6.09435 18.1556 6.10057 18.0624 6.09714C12.4849 6.09714 6.90739 6.09714 1.3299 6.09714C0.647652 6.09714 0.0933215 5.61878 0.0112784 4.97243C-0.0750827 4.28899 0.34161 3.6879 1.01792 3.51445C1.13716 3.48958 1.25904 3.48005 1.38064 3.48609C2.57944 3.48609 3.77824 3.48227 4.97704 3.48936C5.13357 3.48936 5.18431 3.45936 5.17729 3.29137C5.1584 2.82774 5.15786 2.36411 5.38888 1.93757C5.65228 1.45049 6.03335 1.1194 6.56231 0.955768C6.61628 0.938859 6.69293 0.944313 6.72423 0.872314L12.5828 0.873405ZM9.6956 3.48554C10.5776 3.48554 11.4601 3.48554 12.3404 3.48554C12.5315 3.48554 12.8008 3.57227 12.8926 3.44845C12.9843 3.32464 12.9293 3.06064 12.9228 2.85937C12.912 2.4612 12.6502 2.18247 12.2584 2.18247C10.5509 2.17593 8.8435 2.17593 7.13607 2.18247C6.7442 2.18247 6.48404 2.45956 6.46677 2.85555C6.46083 3.0001 6.47811 3.14682 6.46245 3.29191C6.4441 3.45554 6.50185 3.49264 6.66054 3.49154C7.67205 3.48173 8.68355 3.48554 9.6956 3.48554Z" fill="white"/>
<path d="M9.7181 7.40451C12.4244 7.40451 15.131 7.40306 17.8377 7.40015C18.0201 7.40015 18.0584 7.43778 18.0395 7.62542C17.9613 8.41086 17.9024 9.19903 17.8371 9.98556C17.7551 10.975 17.6732 11.9644 17.5915 12.9539C17.5284 13.7262 17.4685 14.4991 17.4053 15.272C17.3254 16.2467 17.2434 17.2214 17.163 18.1967C17.0993 18.9767 17.0442 19.7572 16.9719 20.5367C16.9287 21.0025 16.9444 21.4765 16.7662 21.9248C16.6262 22.2836 16.3842 22.5925 16.0708 22.8126C15.7574 23.0327 15.3866 23.1543 15.005 23.1619C14.1954 23.1701 13.3825 23.1619 12.5713 23.1646C9.9081 23.1646 7.2444 23.145 4.58285 23.1739C3.52277 23.1853 2.54527 22.4675 2.46215 21.1656C2.38496 19.9579 2.2673 18.7531 2.17014 17.5471C2.07838 16.406 1.99256 15.2644 1.90026 14.1233C1.80796 12.9822 1.70703 11.8564 1.61203 10.723C1.52351 9.66156 1.43985 8.59958 1.34755 7.53869C1.33622 7.40396 1.39667 7.40233 1.49329 7.40287C1.90242 7.40287 2.31156 7.40287 2.72069 7.40287L9.7181 7.40451ZM9.04988 14.6088V19.7419C9.04534 19.8506 9.05624 19.9593 9.08227 20.0648C9.11229 20.1887 9.17895 20.3003 9.27336 20.3849C9.36776 20.4695 9.48543 20.523 9.61069 20.5383C9.85682 20.5792 10.0587 20.4767 10.2098 20.2781C10.3248 20.127 10.3431 19.9509 10.3431 19.7649C10.3431 16.3427 10.3431 12.9206 10.3431 9.49848C10.3467 9.38271 10.3321 9.2671 10.3 9.15594C10.2675 9.06017 10.2132 8.97346 10.1414 8.90285C10.0697 8.83223 9.98244 8.77969 9.88684 8.74947C9.79123 8.71925 9.68993 8.7122 9.59113 8.7289C9.49233 8.74559 9.39881 8.78557 9.31814 8.84558C9.11087 9.0043 9.04826 9.22412 9.04826 9.47611C9.05078 11.1866 9.05132 12.8975 9.04988 14.6088ZM7.11054 19.9165C6.99719 18.1132 6.88654 16.3842 6.78074 14.6546C6.67279 12.903 6.56808 11.1515 6.46661 9.4003C6.44771 9.08394 6.29658 8.84667 6.04344 8.75558C5.56683 8.58376 5.14096 8.95903 5.17983 9.50557C5.22624 10.1492 5.26241 10.7934 5.30181 11.4375C5.36334 12.4433 5.42488 13.4491 5.48641 14.4549C5.55334 15.5404 5.62063 16.6258 5.68828 17.7113C5.73362 18.4492 5.77086 19.1878 5.82322 19.9252C5.84966 20.2961 6.16272 20.5732 6.49575 20.5487C6.85739 20.5219 7.11701 20.2219 7.11054 19.9165ZM12.2803 19.9438C12.2728 20.2165 12.5281 20.5176 12.8876 20.5481C13.2303 20.5776 13.5407 20.2934 13.5714 19.9132C13.593 19.6405 13.6017 19.3629 13.6184 19.088C13.6659 18.2851 13.7139 17.4822 13.7625 16.6793C13.8283 15.6156 13.8949 14.5524 13.9622 13.4895L14.1209 10.951C14.1527 10.4448 14.1889 9.93865 14.2148 9.43193C14.2293 9.25648 14.1743 9.08239 14.0619 8.9479C13.9494 8.81341 13.7887 8.72953 13.6151 8.71467C13.2762 8.6874 12.9599 8.97921 12.9286 9.3523C12.9172 9.48975 12.9194 9.62775 12.9108 9.7652C12.8446 10.843 12.7776 11.9206 12.71 12.9981C12.6468 14.0257 12.5874 15.0527 12.5238 16.0798C12.446 17.3311 12.3661 18.5823 12.2803 19.9438Z" fill="white"/>
</g>
<defs>
<clipPath id="clip0_247_1037">
<rect width="19.3913" height="22.3" fill="white" transform="translate(0 0.873779)"/>
</clipPath>
</defs>
</svg>
