<svg width="20" height="24" viewBox="0 0 20 24" fill="none" xmlns="http://www.w3.org/2000/svg">
<path d="M12.5828 0.702751C12.9001 0.81184 13.224 0.905111 13.4939 1.13311C13.9656 1.53565 14.2101 2.04237 14.2204 2.66526C14.2242 2.87472 14.1486 3.15617 14.2538 3.27344C14.3747 3.40762 14.6581 3.31216 14.8708 3.31271C15.94 3.31707 17.0093 3.31271 18.0791 3.31598C18.756 3.31598 19.3141 3.80688 19.3837 4.45542C19.424 4.78593 19.3387 5.11958 19.1452 5.38912C18.9517 5.65866 18.6643 5.84405 18.3409 5.90794C18.2489 5.9237 18.1556 5.92991 18.0624 5.92648C12.4849 5.92648 6.90739 5.92648 1.3299 5.92648C0.647652 5.92648 0.0933215 5.44813 0.0112784 4.80177C-0.0750827 4.11833 0.34161 3.51725 1.01792 3.3438C1.13716 3.31893 1.25904 3.3094 1.38064 3.31544C2.57944 3.31544 3.77824 3.31162 4.97704 3.31871C5.13357 3.31871 5.18431 3.28871 5.17729 3.12071C5.1584 2.65708 5.15786 2.19345 5.38888 1.76692C5.65228 1.27983 6.03335 0.948747 6.56231 0.785113C6.61628 0.768205 6.69293 0.773659 6.72423 0.70166L12.5828 0.702751ZM9.6956 3.31489C10.5776 3.31489 11.4601 3.31489 12.3404 3.31489C12.5315 3.31489 12.8008 3.40162 12.8926 3.2778C12.9843 3.15398 12.9293 2.88999 12.9228 2.68872C12.912 2.29054 12.6502 2.01182 12.2584 2.01182C10.5509 2.00528 8.8435 2.00528 7.13607 2.01182C6.7442 2.01182 6.48404 2.28891 6.46677 2.6849C6.46083 2.82944 6.47811 2.97617 6.46245 3.12126C6.4441 3.28489 6.50185 3.32198 6.66054 3.32089C7.67205 3.31107 8.68355 3.31489 9.6956 3.31489Z" fill="white"/>
<path d="M9.71834 7.23361C12.4247 7.23361 15.1312 7.23216 17.8379 7.22925C18.0203 7.22925 18.0587 7.26688 18.0398 7.45452C17.9615 8.23996 17.9027 9.02813 17.8374 9.81466C17.7553 10.8041 17.6735 11.7935 17.5918 12.783C17.5286 13.5553 17.4687 14.3282 17.4056 15.1011C17.3257 16.0758 17.2436 17.0505 17.1632 18.0258C17.0995 18.8058 17.0445 19.5863 16.9721 20.3658C16.929 20.8316 16.9446 21.3056 16.7665 21.7539C16.6264 22.1127 16.3845 22.4216 16.0711 22.6417C15.7577 22.8618 15.3869 22.9834 15.0053 22.991C14.1956 22.9992 13.3828 22.991 12.5715 22.9937C9.90834 22.9937 7.24464 22.9741 4.5831 23.003C3.52302 23.0144 2.54552 22.2966 2.46239 20.9947C2.38521 19.787 2.26754 18.5822 2.17039 17.3762C2.07863 16.2351 1.99281 15.0935 1.90051 13.9524C1.80821 12.8113 1.70727 11.6855 1.61228 10.5521C1.52376 9.49067 1.44009 8.42868 1.3478 7.36779C1.33646 7.23307 1.39691 7.23143 1.49353 7.23198C1.90267 7.23198 2.3118 7.23198 2.72094 7.23198L9.71834 7.23361ZM9.05013 14.4379V19.571C9.04558 19.6797 9.05649 19.7884 9.08251 19.894C9.11254 20.0178 9.1792 20.1294 9.2736 20.214C9.36801 20.2986 9.48568 20.3521 9.61093 20.3674C9.85706 20.4083 10.0589 20.3058 10.2101 20.1072C10.325 19.9561 10.3434 19.78 10.3434 19.594C10.3434 16.1718 10.3434 12.7497 10.3434 9.32758C10.3469 9.21181 10.3324 9.0962 10.3002 8.98504C10.2678 8.88927 10.2134 8.80257 10.1417 8.73195C10.0699 8.66133 9.98268 8.60879 9.88708 8.57857C9.79148 8.54835 9.69017 8.5413 9.59138 8.558C9.49258 8.5747 9.39906 8.61467 9.31839 8.67468C9.11112 8.8334 9.04851 9.05322 9.04851 9.30521C9.05103 11.0157 9.05157 12.7266 9.05013 14.4379ZM7.11078 19.7456C6.99743 17.9423 6.88678 16.2133 6.78099 14.4837C6.67304 12.7321 6.56832 10.9806 6.46685 9.2294C6.44796 8.91304 6.29683 8.67577 6.04368 8.58468C5.56708 8.41287 5.14121 8.78813 5.18007 9.33467C5.22649 9.97829 5.26265 10.6225 5.30205 11.2666C5.36359 12.2724 5.42512 13.2782 5.48665 14.284C5.55358 15.3695 5.62087 16.4549 5.68852 17.5404C5.73386 18.2783 5.7711 19.0169 5.82346 19.7543C5.84991 20.1252 6.16297 20.4023 6.496 20.3778C6.85763 20.351 7.11726 20.051 7.11078 19.7456ZM12.2806 19.7729C12.273 20.0456 12.5283 20.3467 12.8878 20.3772C13.2305 20.4067 13.5409 20.1225 13.5717 19.7423C13.5933 19.4696 13.6019 19.192 13.6186 18.9171C13.6661 18.1142 13.7142 17.3113 13.7627 16.5084C13.8286 15.4447 13.8952 14.3815 13.9625 13.3186L14.1211 10.7801C14.153 10.2739 14.1891 9.76775 14.2151 9.26103C14.2296 9.08558 14.1745 8.91149 14.0621 8.777C13.9497 8.64251 13.789 8.55863 13.6154 8.54377C13.2764 8.5165 12.9601 8.80831 12.9288 9.1814C12.9175 9.31885 12.9196 9.45685 12.911 9.5943C12.8448 10.6721 12.7779 11.7497 12.7102 12.8272C12.6471 13.8548 12.5877 14.8819 12.524 15.9089C12.4463 17.1602 12.3664 18.4114 12.2806 19.7729Z" fill="white"/>
</svg>
