<svg width="23" height="23" viewBox="0 0 23 23" fill="none" xmlns="http://www.w3.org/2000/svg">
<g clip-path="url(#clip0_247_1024)">
<path d="M0 22.2041C0.149463 21.6388 0.30408 21.0748 0.447453 20.508C0.766058 19.2485 1.07529 17.9867 1.39858 16.7296C1.43524 16.5945 1.50605 16.471 1.60427 16.3709C5.75863 12.2261 9.91658 8.08423 14.0781 3.94535C14.1147 3.90896 14.154 3.87584 14.1793 3.85205L19.1411 8.79156C19.069 8.83512 19.0007 8.88458 18.9368 8.93943C14.8397 13.0149 10.7439 17.0922 6.64947 21.1714C6.47248 21.3514 6.24723 21.4771 6.00055 21.5333C4.25525 21.9588 2.51276 22.394 0.769806 22.8273C0.737024 22.8396 0.705617 22.8552 0.676099 22.874H0V22.2041Z" fill="white"/>
<path d="M20.5598 7.32356C18.9063 5.67877 17.274 4.0531 15.6294 2.41624C15.6608 2.38079 15.7011 2.32948 15.747 2.28423C16.254 1.7781 16.7604 1.27104 17.2707 0.768183C18.3118 -0.258063 19.8818 -0.25573 20.9253 0.775181C21.3548 1.2003 21.7825 1.62681 22.2086 2.05472C23.2572 3.11082 23.2637 4.60541 22.2217 5.66384C21.6735 6.22175 21.115 6.77079 20.5598 7.32356Z" fill="white"/>
</g>
<defs>
<clipPath id="clip0_247_1024">
<rect width="23" height="22.8736" fill="white"/>
</clipPath>
</defs>
</svg>
