<svg width="23" height="24" viewBox="0 0 23 24" fill="none" xmlns="http://www.w3.org/2000/svg">
<g clip-path="url(#clip0_250_2413)">
<path d="M0 22.6067C0.149463 22.0413 0.30408 21.4774 0.447453 20.9106C0.766058 19.6511 1.07529 18.3893 1.39858 17.1322C1.43524 16.9971 1.50605 16.8736 1.60427 16.7734C5.75863 12.6287 9.91658 8.48682 14.0781 4.34793C14.1147 4.31155 14.154 4.27843 14.1793 4.25464L19.1411 9.19415C19.069 9.23771 19.0007 9.28717 18.9368 9.34202C14.8397 13.4175 10.7439 17.4948 6.64947 21.5739C6.47248 21.754 6.24723 21.8797 6.00055 21.9359C4.25525 22.3614 2.51276 22.7966 0.769806 23.2299C0.737024 23.2422 0.705617 23.2578 0.676099 23.2766H0V22.6067Z" fill="white"/>
<path d="M20.5598 7.72615C18.9063 6.08136 17.274 4.45569 15.6294 2.81883C15.6608 2.78338 15.7011 2.73206 15.747 2.68682C16.254 2.18069 16.7604 1.67363 17.2707 1.17077C18.3118 0.144525 19.8818 0.146858 20.9253 1.17777C21.3548 1.60288 21.7825 2.0294 22.2086 2.45731C23.2572 3.51341 23.2637 5.008 22.2217 6.06643C21.6735 6.62434 21.115 7.17338 20.5598 7.72615Z" fill="white"/>
</g>
<defs>
<clipPath id="clip0_250_2413">
<rect width="23" height="22.8736" fill="white" transform="translate(0 0.402588)"/>
</clipPath>
</defs>
</svg>
