<svg width="72" height="82" viewBox="0 0 72 82" fill="none" xmlns="http://www.w3.org/2000/svg">
<path d="M19.2857 41C19.2857 45.9488 15.2518 49.9688 10.2857 49.9688C5.31965 49.9688 1.28572 45.9488 1.28572 41C1.28572 36.0512 5.31965 32.0312 10.2857 32.0312C15.2518 32.0312 19.2857 36.0512 19.2857 41ZM45 41C45 45.9488 40.9661 49.9688 36 49.9688C31.0339 49.9688 27 45.9488 27 41C27 36.0512 31.0339 32.0312 36 32.0312C40.9661 32.0312 45 36.0512 45 41ZM61.7143 49.9688C56.7482 49.9688 52.7143 45.9488 52.7143 41C52.7143 36.0512 56.7482 32.0312 61.7143 32.0312C66.6804 32.0312 70.7143 36.0512 70.7143 41C70.7143 45.9488 66.6804 49.9688 61.7143 49.9688Z" fill="#183A48"/>
</svg>
