<svg width="70" height="18" viewBox="0 0 70 18" fill="none" xmlns="http://www.w3.org/2000/svg">
<path d="M18 8.9688C18 13.9176 13.9661 17.9376 8.99998 17.9376C4.03393 17.9376 0 13.9176 0 8.9688C0 4.02 4.03393 0 8.99998 0C13.9661 0 18 4.02 18 8.9688ZM43.7143 8.9688C43.7143 13.9176 39.6804 17.9376 34.7143 17.9376C29.7482 17.9376 25.7143 13.9176 25.7143 8.9688C25.7143 4.02 29.7482 0 34.7143 0C39.6804 0 43.7143 4.02 43.7143 8.9688ZM60.4286 17.9376C55.4625 17.9376 51.4286 13.9176 51.4286 8.9688C51.4286 4.02 55.4625 0 60.4286 0C65.3947 0 69.4286 4.02 69.4286 8.9688C69.4286 13.9176 65.3947 17.9376 60.4286 17.9376Z" fill="#899DA0"/>
</svg>
