<svg width="22" height="21" viewBox="0 0 22 21" fill="none" xmlns="http://www.w3.org/2000/svg">
<g clip-path="url(#clip0_250_2377)">
<path d="M0 3.39468C0.139166 3.10273 0.258988 2.80004 0.540006 2.60219C0.77965 2.43337 1.03703 2.32369 1.33201 2.32315C3.12559 2.32154 4.91969 2.32315 6.71327 2.31885C6.83792 2.31885 6.86479 2.35648 6.86425 2.47423C6.85942 3.28231 6.85781 4.09039 6.86533 4.89847C6.86694 5.0431 6.82234 5.07159 6.68748 5.07105C5.4366 5.06621 4.18625 5.07159 2.93537 5.06353C2.76988 5.06245 2.74087 5.10923 2.74087 5.26407C2.74516 9.25447 2.7457 13.2449 2.74033 17.2347C2.74033 17.3982 2.78278 17.4304 2.93967 17.4304C6.92766 17.4256 10.9151 17.4256 14.9031 17.4304C15.0648 17.4304 15.1003 17.3912 15.0997 17.2321C15.0933 15.5514 15.0992 13.8712 15.0911 12.1906C15.0901 12.011 15.1341 11.969 15.3114 11.9717C16.0975 11.9825 16.8836 11.9803 17.6697 11.9728C17.8116 11.9717 17.8438 12.011 17.8438 12.1492C17.8395 14.3659 17.8433 16.5826 17.8395 18.7998C17.8379 19.5724 17.241 20.1708 16.4688 20.1714C11.4374 20.174 6.40646 20.1735 1.375 20.1714C0.767292 20.1714 0.276719 19.8106 0.0746874 19.2418C0.0580305 19.1939 0.0698515 19.123 0.000537319 19.0998V3.39468H0Z" fill="white"/>
<path d="M21.9999 5.92625C21.9585 5.93754 21.9258 5.94884 21.9096 6.00152C21.8618 6.15905 21.7447 6.26551 21.6179 6.36067C19.8367 7.6978 18.0565 9.03599 16.2732 10.3704C15.8186 10.7108 15.2936 10.5715 15.1249 10.0801C15.0937 9.9887 15.0964 9.8973 15.0959 9.80483C15.0948 9.18976 15.0937 8.57469 15.0975 7.95963C15.098 7.8564 15.0825 7.80963 14.9605 7.81231C13.946 7.83597 12.9305 7.76715 11.9176 7.85425C10.4653 7.97898 9.21762 8.56072 8.16877 9.57203C7.61264 10.1086 7.18924 10.7387 6.85825 11.4344C6.7395 11.6844 6.57454 11.8834 6.28439 11.9285C5.86045 11.9941 5.49238 11.6785 5.49077 11.2393C5.48701 10.1769 5.7014 9.15696 6.13663 8.18974C6.82279 6.66444 7.89689 5.48323 9.35248 4.65956C10.425 4.05256 11.5834 3.73159 12.8155 3.70202C13.5086 3.68535 14.2023 3.69019 14.8955 3.70148C15.0722 3.70417 15.1013 3.64664 15.0991 3.48803C15.09 2.90899 15.1034 2.32941 15.0927 1.75036C15.0868 1.42778 15.1851 1.17132 15.4785 1.02239C15.7751 0.871851 16.04 0.962176 16.292 1.15196C17.3349 1.93908 18.3805 2.72135 19.4256 3.50578C20.122 4.02837 20.8178 4.55203 21.5152 5.07409C21.6872 5.20312 21.8624 5.32678 21.9284 5.54829C21.9338 5.56603 21.9752 5.57248 21.9999 5.58431V5.92787V5.92625Z" fill="white"/>
</g>
<defs>
<clipPath id="clip0_250_2377">
<rect width="22" height="19.2283" fill="white" transform="translate(0 0.945068)"/>
</clipPath>
</defs>
</svg>
