<svg width="20" height="21" viewBox="0 0 20 21" fill="none" xmlns="http://www.w3.org/2000/svg">
<g clip-path="url(#clip0_250_2370)">
<path d="M0.00292969 15.0313C0.0929823 14.8918 0.0758527 14.7255 0.109622 14.5729C0.309304 13.6665 0.745864 12.8926 1.39777 12.239C2.78086 10.8527 4.16737 9.46932 5.55291 8.08495C5.56613 8.07174 5.58228 8.06049 5.5999 8.04581C5.65667 8.09278 5.62828 8.15539 5.62143 8.20529C5.50299 9.10391 5.62632 9.97806 5.88572 10.8375C5.9278 10.977 5.9048 11.067 5.79713 11.1731C4.88045 12.0781 3.96671 12.9865 3.06129 13.9032C2.08491 14.8914 2.12112 16.401 3.13373 17.3182C4.00342 18.1067 5.3777 18.116 6.24152 17.3187C6.71919 16.8774 7.16847 16.4054 7.62853 15.9455C8.60002 14.9755 9.57445 14.0084 10.5401 13.0325C11.445 12.1187 11.4748 10.6693 10.6179 9.76234C10.5998 9.74326 10.5841 9.72174 10.5636 9.70608C10.3859 9.57205 10.2347 9.43752 10.2376 9.17581C10.2415 8.80844 10.2161 8.43911 10.4833 8.14365C10.7192 7.88341 10.9756 7.64273 11.2174 7.38787C11.282 7.31988 11.3261 7.35118 11.3833 7.3864C12.4473 8.04043 13.1398 8.97868 13.431 10.185C13.8382 11.8722 13.4678 13.3881 12.2501 14.6389C10.8024 16.126 9.3268 17.5862 7.84093 19.0352C7.11904 19.7391 6.22635 20.1265 5.21619 20.2234C5.18879 20.2258 5.16578 20.2302 5.15942 20.2615H4.14388C4.12969 20.2077 4.08368 20.2249 4.04894 20.22C2.1221 19.9504 0.56429 18.5274 0.12039 16.6382C0.0802575 16.467 0.0934717 16.2831 0.0034191 16.1231V15.0298L0.00292969 15.0313Z" fill="white"/>
<path d="M14.6947 12.197C14.6673 11.9656 14.7231 11.7631 14.7329 11.5576C14.7676 10.8018 14.6203 10.073 14.4148 9.35338C14.381 9.23598 14.404 9.16896 14.4887 9.08531C15.3114 8.27034 16.1341 7.4544 16.9475 6.63013C17.9283 5.63564 17.8837 4.11625 16.8565 3.20149C15.9936 2.43299 14.6379 2.43348 13.7746 3.20296C13.7261 3.24601 13.6782 3.29052 13.6322 3.3365C12.3479 4.6201 11.0608 5.90077 9.78096 7.18828C8.86428 8.11087 8.82709 9.50943 9.6821 10.4575C9.70363 10.4814 9.72174 10.5122 9.74866 10.5284C9.96155 10.659 10.0702 10.8356 10.0741 11.0973C10.079 11.4407 10.0854 11.7836 9.8485 12.0576C9.61064 12.3325 9.34195 12.5805 9.09088 12.8441C9.02579 12.9126 8.98223 12.8764 8.92399 12.8412C7.86 12.1945 7.18216 11.2558 6.88606 10.0588C6.46614 8.36231 6.84299 6.8439 8.06458 5.58623C9.42026 4.1911 10.795 2.81259 12.2016 1.46883C13.7501 -0.0104452 16.3181 -0.132739 18.0369 1.14401C19.4381 2.18449 20.0974 3.58941 19.9892 5.32501C19.9173 6.4736 19.4391 7.46271 18.6247 8.28013C17.339 9.57106 16.0484 10.8576 14.7598 12.1456C14.7466 12.1588 14.7304 12.1691 14.6952 12.197H14.6947Z" fill="white"/>
</g>
<defs>
<clipPath id="clip0_250_2370">
<rect width="20" height="20" fill="white" transform="translate(0 0.265869)"/>
</clipPath>
</defs>
</svg>
