<svg width="59" height="67" viewBox="0 0 59 67" fill="none" xmlns="http://www.w3.org/2000/svg">
<g clip-path="url(#clip0_1_10)">
<path d="M18.9643 18.8438V25.125H40.0357V18.8438C40.0357 13.0598 35.321 8.375 29.5 8.375C23.679 8.375 18.9643 13.0598 18.9643 18.8438ZM10.5357 25.125V18.8438C10.5357 8.44043 19.0301 0 29.5 0C39.9699 0 48.4643 8.44043 48.4643 18.8438V25.125H50.5714C55.2203 25.125 59 28.8807 59 33.5V58.625C59 63.2443 55.2203 67 50.5714 67H8.42857C3.77969 67 0 63.2443 0 58.625V33.5C0 28.8807 3.77969 25.125 8.42857 25.125H10.5357Z" fill="#183A48"/>
</g>
<defs>
<clipPath id="clip0_1_10">
<rect width="59" height="67" fill="white"/>
</clipPath>
</defs>
</svg>
