<svg width="24" height="20" viewBox="0 0 24 20" fill="none" xmlns="http://www.w3.org/2000/svg">
<path d="M3.69607 8.91416L0 15.3606V3.49407C0 1.99697 1.19591 0.779785 2.66684 0.779785H7.56299C8.27137 0.779785 8.95058 1.06394 9.45061 1.57287L10.5549 2.69675C11.0549 3.20568 11.7341 3.48983 12.4425 3.48983H17.3345C18.8054 3.48983 20.0013 4.70702 20.0013 6.20411V7.56126H6.00039C5.05033 7.56126 4.17527 8.07443 3.69607 8.90992V8.91416ZM4.84615 9.59697C5.08783 9.17711 5.52536 8.92264 6.00039 8.92264H22.6681C23.1473 8.92264 23.5849 9.18135 23.8224 9.60545C24.0599 10.0296 24.0599 10.547 23.8182 10.9668L19.1512 19.1097C18.9137 19.5253 18.4762 19.7798 18.0012 19.7798H1.33342C0.854222 19.7798 0.416694 19.5211 0.179178 19.097C-0.0583371 18.6729 -0.0583371 18.1555 0.183345 17.7356L4.85032 9.59273L4.84615 9.59697Z" fill="white"/>
</svg>
