<svg width="73" height="64" viewBox="0 0 73 64" fill="none" xmlns="http://www.w3.org/2000/svg">
<g clip-path="url(#clip0_2_7)">
<path d="M61.4797 36.2297C63.9688 36.2297 65.9797 34.2188 65.9797 31.7297C65.9797 29.2407 63.9688 27.2297 61.4797 27.2297L41.2297 27.2297L41.2297 6.97974C41.2297 4.49067 39.2188 2.47974 36.7297 2.47974C34.2406 2.47973 32.2297 4.49067 32.2297 6.97974L32.2297 27.2297L11.9797 27.2297C9.49064 27.2297 7.4797 29.2407 7.4797 31.7297C7.4797 34.2188 9.49064 36.2297 11.9797 36.2297L32.2297 36.2297L32.2297 56.4797C32.2297 58.9688 34.2406 60.9797 36.7297 60.9797C39.2188 60.9797 41.2297 58.9688 41.2297 56.4797L41.2297 36.2297L61.4797 36.2297Z" fill="#00AAA0"/>
</g>
<defs>
<clipPath id="clip0_2_7">
<rect width="63" height="72" fill="white" transform="translate(72.7297 0.229736) rotate(90)"/>
</clipPath>
</defs>
</svg>
