<svg width="85" height="85" viewBox="0 0 85 85" fill="none" xmlns="http://www.w3.org/2000/svg">
<g clip-path="url(#clip0_1_38)">
<path d="M67.0371 5.71094C69.0293 4.88086 71.3037 5.34571 72.8311 6.85645L83.4561 17.4814C84.4522 18.4775 85.0166 19.8223 85.0166 21.2334C85.0166 22.6445 84.4522 23.9893 83.4561 24.9854L72.8311 35.6104C71.3037 37.1377 69.0293 37.5859 67.0371 36.7559C65.0449 35.9258 63.75 34 63.75 31.8418V26.5625H58.4375C56.7607 26.5625 55.1836 27.3428 54.1875 28.6875L47.1484 38.0674L40.5078 29.2188L45.6875 22.3125C48.6924 18.2949 53.4238 15.9375 58.4375 15.9375H63.75V10.625C63.75 8.4834 65.0449 6.54102 67.0371 5.71094ZM27.2266 46.9326L33.8672 55.7813L28.6875 62.6875C25.6826 66.7051 20.9512 69.0625 15.9375 69.0625H5.3125C2.37402 69.0625 0 66.6885 0 63.75C0 60.8115 2.37402 58.4375 5.3125 58.4375H15.9375C17.6143 58.4375 19.1914 57.6572 20.1875 56.3125L27.2266 46.9326ZM72.8145 78.1436C71.2871 79.6709 69.0127 80.1191 67.0205 79.2891C65.0283 78.459 63.7334 76.5332 63.7334 74.375V69.0625H58.4375C53.4238 69.0625 48.6924 66.7051 45.6875 62.6875L20.1875 28.6875C19.1914 27.3428 17.6143 26.5625 15.9375 26.5625H5.3125C2.37402 26.5625 0 24.1885 0 21.25C0 18.3115 2.37402 15.9375 5.3125 15.9375H15.9375C20.9512 15.9375 25.6826 18.2949 28.6875 22.3125L54.1875 56.3125C55.1836 57.6572 56.7607 58.4375 58.4375 58.4375H63.75V53.125C63.75 50.9834 65.0449 49.041 67.0371 48.2109C69.0293 47.3809 71.3037 47.8457 72.8311 49.3564L83.4561 59.9814C84.4522 60.9775 85.0166 62.3223 85.0166 63.7334C85.0166 65.1445 84.4522 66.4893 83.4561 67.4854L72.8311 78.1104L72.8145 78.1436Z" fill="#183A48"/>
</g>
<defs>
<clipPath id="clip0_1_38">
<rect width="85" height="85" fill="white"/>
</clipPath>
</defs>
</svg>
