<svg width="86" height="75" viewBox="0 0 86 75" fill="none" xmlns="http://www.w3.org/2000/svg">
<path d="M67.0371 0.407679C69.0293 -0.422401 71.3037 0.0424495 72.8311 1.55319L83.4561 12.1781C84.4522 13.1742 85.0166 14.519 85.0166 15.9301C85.0166 17.3412 84.4522 18.686 83.4561 19.6821L72.8311 30.3071C71.3037 31.8344 69.0293 32.2826 67.0371 31.4526C65.0449 30.6225 63.75 28.6967 63.75 26.5385V21.2592H58.4375C56.7607 21.2592 55.1836 22.0395 54.1875 23.3842L47.1484 32.7641L40.5078 23.9155L45.6875 17.0092C48.6924 12.9916 53.4238 10.6342 58.4375 10.6342H63.75V5.32174C63.75 3.18014 65.0449 1.23776 67.0371 0.407679ZM27.2266 41.6293L33.8672 50.478L28.6875 57.3842C25.6826 61.4018 20.9512 63.7592 15.9375 63.7592H5.3125C2.37402 63.7592 0 61.3852 0 58.4467C0 55.5082 2.37402 53.1342 5.3125 53.1342H15.9375C17.6143 53.1342 19.1914 52.3539 20.1875 51.0092L27.2266 41.6293ZM72.8145 72.8403C71.2871 74.3676 69.0127 74.8158 67.0205 73.9858C65.0283 73.1557 63.7334 71.2299 63.7334 69.0717V63.7592H58.4375C53.4238 63.7592 48.6924 61.4018 45.6875 57.3842L20.1875 23.3842C19.1914 22.0395 17.6143 21.2592 15.9375 21.2592H5.3125C2.37402 21.2592 0 18.8852 0 15.9467C0 13.0082 2.37402 10.6342 5.3125 10.6342H15.9375C20.9512 10.6342 25.6826 12.9916 28.6875 17.0092L54.1875 51.0092C55.1836 52.3539 56.7607 53.1342 58.4375 53.1342H63.75V47.8217C63.75 45.6801 65.0449 43.7377 67.0371 42.9076C69.0293 42.0776 71.3037 42.5424 72.8311 44.0531L83.4561 54.6781C84.4522 55.6742 85.0166 57.019 85.0166 58.4301C85.0166 59.8412 84.4522 61.186 83.4561 62.1821L72.8311 72.8071L72.8145 72.8403Z" fill="white"/>
</svg>
