<svg width="27" height="31" viewBox="0 0 27 31" fill="none" xmlns="http://www.w3.org/2000/svg">
<path d="M26.102 7.8166L21.0455 2.73672C20.6297 2.32016 19.7136 1.9375 19.0507 1.9375H3.85714C1.72667 1.9375 0 3.67217 0 5.8125V25.1875C0 27.3278 1.72667 29.0625 3.85714 29.0625H23.1429C25.2733 29.0625 27 27.3278 27 25.1875V9.92363C27 9.25762 26.6203 8.33731 26.102 7.8166ZM13.5 25.1875C11.3701 25.1875 9.64286 23.4522 9.64286 21.3125C9.64286 19.1728 11.3701 17.4375 13.5 17.4375C15.6299 17.4375 17.3571 19.1728 17.3571 21.3125C17.3571 23.4522 15.6275 25.1875 13.5 25.1875ZM19.2857 12.5938C19.2857 13.1266 18.8518 13.5625 18.3214 13.5625H4.82143C4.28866 13.5625 3.85714 13.1266 3.85714 12.5938V6.78125C3.85714 6.24844 4.28866 5.8125 4.82143 5.8125H18.3214C18.8518 5.8125 19.2857 6.24844 19.2857 6.78125V12.5938Z" fill="#183A48"/>
</svg>
