<svg width="54" height="48" viewBox="0 0 54 48" fill="none" xmlns="http://www.w3.org/2000/svg">
<g clip-path="url(#clip0_1_32)">
<path d="M29.7094 1.6875C29.2125 0.65625 28.1625 0 27.0094 0C25.8563 0 24.8156 0.65625 24.3094 1.6875L18.2812 14.0906L4.81875 16.0781C3.69375 16.2469 2.75625 17.0344 2.40938 18.1125C2.0625 19.1906 2.34375 20.3812 3.15 21.1781L12.9188 30.8438L10.6125 44.5031C10.425 45.6281 10.8937 46.7719 11.8219 47.4375C12.75 48.1031 13.9781 48.1875 14.9906 47.6531L27.0188 41.2312L39.0469 47.6531C40.0594 48.1875 41.2875 48.1125 42.2156 47.4375C43.1437 46.7625 43.6125 45.6281 43.425 44.5031L41.1094 30.8438L50.8781 21.1781C51.6844 20.3812 51.975 19.1906 51.6187 18.1125C51.2625 17.0344 50.3344 16.2469 49.2094 16.0781L35.7375 14.0906L29.7094 1.6875Z" fill="#183A48"/>
</g>
<defs>
<clipPath id="clip0_1_32">
<rect width="54" height="48" fill="white"/>
</clipPath>
</defs>
</svg>
