<svg width="50" height="49" viewBox="0 0 50 49" fill="none" xmlns="http://www.w3.org/2000/svg">
<path d="M27.4459 1.6875C26.949 0.65625 25.899 0 24.7459 0C23.5928 0 22.5521 0.65625 22.0459 1.6875L16.0177 14.0906L2.55529 16.0781C1.43029 16.2469 0.49279 17.0344 0.14592 18.1125C-0.20096 19.1906 0.0802898 20.3812 0.88654 21.1781L10.6553 30.8438L8.34903 44.5031C8.16153 45.6281 8.63023 46.7719 9.55843 47.4375C10.4865 48.1031 11.7146 48.1875 12.7271 47.6531L24.7553 41.2312L36.7834 47.6531C37.7959 48.1875 39.024 48.1125 39.9521 47.4375C40.8802 46.7625 41.349 45.6281 41.1615 44.5031L38.8459 30.8438L48.6146 21.1781C49.4209 20.3812 49.7115 19.1906 49.3552 18.1125C48.999 17.0344 48.0709 16.2469 46.9459 16.0781L33.474 14.0906L27.4459 1.6875Z" fill="white"/>
</svg>
