<svg width="27" height="25" viewBox="0 0 27 25" fill="none" xmlns="http://www.w3.org/2000/svg">
<g clip-path="url(#clip0_247_1030)">
<path d="M0 10.166C0.183979 9.87784 0.381688 9.61291 0.772987 9.60335C1.27206 9.59106 1.63247 9.92973 1.64414 10.4302C1.67709 11.9058 2.1645 13.2072 3.17844 14.2929C4.29124 15.4844 5.68138 16.1153 7.31042 16.1365C9.91908 16.1658 12.5312 16.144 15.1419 16.1501C15.3046 16.1501 15.3369 16.1037 15.3362 15.9514C15.3298 14.8698 15.3298 13.7887 15.3362 12.7081C15.3362 12.0731 15.7769 11.6907 16.3481 11.802C16.554 11.8423 16.6975 11.9706 16.8403 12.1058L22.0953 17.0958C22.2937 17.2843 22.4935 17.47 22.6905 17.6591C23.1367 18.0866 23.1422 18.5632 22.6953 18.9879C20.8766 20.7176 19.0567 22.4454 17.2357 24.171C17.0867 24.3124 16.9405 24.4551 16.7915 24.5958C16.5169 24.8573 16.1984 24.9617 15.8304 24.7972C15.4776 24.6388 15.3334 24.3499 15.3327 23.9778C15.3327 22.9311 15.3218 21.8836 15.3403 20.8369C15.3451 20.5638 15.2613 20.5078 15.0018 20.5092C12.965 20.5201 10.9282 20.5023 8.89209 20.5194C7.34543 20.5303 5.86605 20.2654 4.50474 19.5143C2.15901 18.2238 0.699532 16.2737 0.147595 13.6565C0.096795 13.4134 0.113957 13.156 0 12.9259L0 10.166Z" fill="white"/>
<path d="M10.9671 11.4662C10.9671 11.9858 10.9671 12.5047 10.9671 13.0243C10.9671 13.4224 10.8443 13.7447 10.4461 13.9011C10.0658 14.0499 9.7596 13.9291 9.47127 13.6566C7.51295 11.7903 5.55119 9.92689 3.586 8.06647C3.16587 7.66703 3.16862 7.17882 3.59424 6.7746C5.56217 4.90461 7.53011 3.03509 9.49805 1.16602C9.77264 0.903135 10.0857 0.78774 10.4543 0.945469C10.823 1.1032 10.9671 1.39749 10.9671 1.78054C10.9671 2.84436 10.9733 3.90885 10.9623 4.97267C10.9623 5.18434 11.0138 5.24101 11.2294 5.24033C13.3685 5.23213 15.5083 5.24033 17.648 5.23418C19.2709 5.2294 20.7956 5.59675 22.1789 6.44958C24.4855 7.87119 25.8406 9.9319 26.2347 12.601C26.3719 13.5385 26.2964 14.4883 26.2923 15.4319C26.2923 15.8375 25.8804 16.1536 25.4424 16.1441C25.2358 16.1382 25.0392 16.0539 24.8932 15.9083C24.7471 15.7628 24.6626 15.5671 24.6571 15.3616C24.6358 14.2151 24.3516 13.1459 23.7008 12.192C22.5832 10.5533 21.0173 9.65741 19.0327 9.61917C16.4062 9.56933 13.7783 9.60756 11.1504 9.59937C10.9754 9.59937 10.9623 9.66765 10.9637 9.80421C10.9713 10.3593 10.9671 10.911 10.9671 11.4662Z" fill="white"/>
</g>
<defs>
<clipPath id="clip0_247_1030">
<rect width="26.3172" height="24" fill="white" transform="translate(0 0.873779)"/>
</clipPath>
</defs>
</svg>
