<svg width="58" height="49" viewBox="0 0 58 49" fill="none" xmlns="http://www.w3.org/2000/svg">
<g clip-path="url(#clip0_1_28)">
<path d="M28.9909 30.625C34.1937 30.625 38.3344 26.1691 38.3344 20.6719C38.3344 15.1747 34.1167 10.7188 28.9909 10.7188C23.7882 10.7188 19.6475 15.1747 19.6475 20.6719C19.5659 26.1652 23.7891 30.625 28.9909 30.625ZM33.5222 33.6875H24.4778C17.3638 33.6875 11.6 39.401 11.6 46.4447C11.6 47.8611 12.7509 49 14.1737 49H43.8263C45.2491 49 46.4 47.8611 46.4 46.4447C46.4 39.401 40.6363 33.6875 33.5222 33.6875ZM46.4 15.3125C50.4038 15.3125 53.65 11.8844 53.65 7.65625C53.65 3.42809 50.4056 0 46.4 0C42.3962 0 39.15 3.42809 39.15 7.65625C39.15 11.8844 42.3944 15.3125 46.4 15.3125ZM16.6659 20.6719C16.6659 20.1504 16.755 19.6546 16.8118 19.1492C15.8231 18.576 14.7356 18.375 13.5847 18.375H7.98225C3.57425 18.375 0 22.3754 0 27.3041C0 28.2898 0.714759 29.0938 1.59681 29.0938H19.6765C17.8259 26.816 16.6659 23.8971 16.6659 20.6719ZM11.6 15.3125C15.6038 15.3125 18.85 11.8844 18.85 7.65625C18.85 3.42809 15.6056 0 11.6 0C7.59619 0 4.35 3.42809 4.35 7.65625C4.35 11.8844 7.59619 15.3125 11.6 15.3125ZM50.0159 18.375H44.4117C43.2517 18.375 42.1569 18.6657 41.1619 19.1636C41.2163 19.667 41.3069 20.1551 41.3069 20.6719C41.3069 23.898 40.1487 26.817 38.3018 29.0938H56.3996C57.2841 29.0938 58 28.2898 58 27.3041C58 22.3754 54.4294 18.375 50.0159 18.375Z" fill="#183A48"/>
</g>
<defs>
<clipPath id="clip0_1_28">
<rect width="58" height="49" fill="white"/>
</clipPath>
</defs>
</svg>
