<svg width="97" height="96" viewBox="0 0 97 96" fill="none" xmlns="http://www.w3.org/2000/svg">
<g clip-path="url(#clip0_1_34)">
<path d="M69.1829 33.6811C70.9429 31.9211 70.9429 29.0772 69.1829 27.3171C67.4228 25.5571 64.5789 25.5571 62.8189 27.3171L48.5 41.636L34.1811 27.3171C32.4211 25.5571 29.5772 25.5571 27.8171 27.3171C26.0571 29.0772 26.0571 31.9211 27.8171 33.6811L42.136 48L27.8171 62.3189C26.0571 64.0789 26.0571 66.9228 27.8171 68.6829C29.5772 70.4429 32.4211 70.4429 34.1811 68.6829L48.5 54.364L62.8189 68.6829C64.5789 70.4429 67.4228 70.4429 69.1829 68.6829C70.9429 66.9228 70.9429 64.0789 69.1829 62.3189L54.864 48L69.1829 33.6811Z" fill="#183A48"/>
</g>
<defs>
<clipPath id="clip0_1_34">
<rect width="63" height="72" fill="white" transform="translate(51.682 0.270294) rotate(45)"/>
</clipPath>
</defs>
</svg>
