<svg width="45" height="45" viewBox="0 0 45 45" fill="none" xmlns="http://www.w3.org/2000/svg">
<path d="M43.4124 8.41081C45.1724 6.65081 45.1724 3.80691 43.4124 2.04681C41.6523 0.286807 38.8084 0.286807 37.0484 2.04681L22.7295 16.3657L8.41056 2.04681C6.65056 0.286807 3.80666 0.286807 2.04656 2.04681C0.286562 3.80691 0.286562 6.65081 2.04656 8.41081L16.3655 22.7297L2.04656 37.0486C0.286562 38.8086 0.286562 41.6525 2.04656 43.4126C3.80666 45.1726 6.65056 45.1726 8.41056 43.4126L22.7295 29.0937L37.0484 43.4126C38.8084 45.1726 41.6523 45.1726 43.4124 43.4126C45.1724 41.6525 45.1724 38.8086 43.4124 37.0486L29.0935 22.7297L43.4124 8.41081Z" fill="#899DA0"/>
</svg>
