<svg width="45" height="45" viewBox="0 0 45 45" fill="none" xmlns="http://www.w3.org/2000/svg">
<path d="M42.6858 7.684C44.4458 5.924 44.4458 3.0801 42.6858 1.32C40.9257 -0.440001 38.0818 -0.440001 36.3218 1.32L22.0029 15.6389L7.684 1.32C5.924 -0.440001 3.0801 -0.440001 1.32 1.32C-0.439999 3.0801 -0.439999 5.924 1.32 7.684L15.6389 22.0029L1.32 36.3218C-0.439999 38.0818 -0.439999 40.9257 1.32 42.6858C3.0801 44.4458 5.924 44.4458 7.684 42.6858L22.0029 28.3669L36.3218 42.6858C38.0818 44.4458 40.9257 44.4458 42.6858 42.6858C44.4458 40.9257 44.4458 38.0818 42.6858 36.3218L28.3669 22.0029L42.6858 7.684Z" fill="white"/>
</svg>
